<mxfile host="app.diagrams.net" agent="Mozilla/5.0 (Windows NT 10.0; Win64; x64; rv:135.0) Gecko/20100101 Firefox/135.0" version="26.0.16">
  <diagram name="Page-1" id="Ls5SoLWd8TUTCqacASa2">
    <mxGraphModel dx="992" dy="408" grid="1" gridSize="10" guides="1" tooltips="1" connect="1" arrows="1" fold="1" page="1" pageScale="1" pageWidth="827" pageHeight="1169" math="0" shadow="0">
      <root>
        <mxCell id="0" />
        <mxCell id="1" parent="0" />
        <mxCell id="4XJ80UnTKWf02rEMEN2x-20" style="edgeStyle=orthogonalEdgeStyle;rounded=0;orthogonalLoop=1;jettySize=auto;html=1;exitX=1;exitY=0.5;exitDx=0;exitDy=0;entryX=0;entryY=0;entryDx=0;entryDy=0;" edge="1" parent="1" source="4XJ80UnTKWf02rEMEN2x-3" target="4XJ80UnTKWf02rEMEN2x-10">
          <mxGeometry relative="1" as="geometry" />
        </mxCell>
        <mxCell id="4XJ80UnTKWf02rEMEN2x-21" value="&lt;div&gt;Specializes&lt;/div&gt;" style="edgeLabel;html=1;align=center;verticalAlign=middle;resizable=0;points=[];" vertex="1" connectable="0" parent="4XJ80UnTKWf02rEMEN2x-20">
          <mxGeometry x="-0.0157" relative="1" as="geometry">
            <mxPoint x="-16" as="offset" />
          </mxGeometry>
        </mxCell>
        <mxCell id="4XJ80UnTKWf02rEMEN2x-3" value="Alumini" style="rounded=0;whiteSpace=wrap;html=1;" vertex="1" parent="1">
          <mxGeometry x="14" y="20" width="120" height="60" as="geometry" />
        </mxCell>
        <mxCell id="4XJ80UnTKWf02rEMEN2x-18" style="edgeStyle=orthogonalEdgeStyle;rounded=0;orthogonalLoop=1;jettySize=auto;html=1;exitX=1;exitY=0.5;exitDx=0;exitDy=0;entryX=0;entryY=1;entryDx=0;entryDy=0;" edge="1" parent="1" source="4XJ80UnTKWf02rEMEN2x-6" target="4XJ80UnTKWf02rEMEN2x-10">
          <mxGeometry relative="1" as="geometry" />
        </mxCell>
        <mxCell id="4XJ80UnTKWf02rEMEN2x-19" value="&lt;div&gt;Specializes&lt;/div&gt;" style="edgeLabel;html=1;align=center;verticalAlign=middle;resizable=0;points=[];" vertex="1" connectable="0" parent="4XJ80UnTKWf02rEMEN2x-18">
          <mxGeometry x="-0.266" y="-4" relative="1" as="geometry">
            <mxPoint as="offset" />
          </mxGeometry>
        </mxCell>
        <mxCell id="4XJ80UnTKWf02rEMEN2x-6" value="Faculty" style="rounded=0;whiteSpace=wrap;html=1;" vertex="1" parent="1">
          <mxGeometry x="14" y="235.5" width="120" height="60" as="geometry" />
        </mxCell>
        <mxCell id="4XJ80UnTKWf02rEMEN2x-7" style="edgeStyle=orthogonalEdgeStyle;rounded=0;orthogonalLoop=1;jettySize=auto;html=1;exitX=1;exitY=0.5;exitDx=0;exitDy=0;entryX=0;entryY=0.5;entryDx=0;entryDy=0;" edge="1" parent="1" source="4XJ80UnTKWf02rEMEN2x-9" target="4XJ80UnTKWf02rEMEN2x-10">
          <mxGeometry relative="1" as="geometry" />
        </mxCell>
        <mxCell id="4XJ80UnTKWf02rEMEN2x-8" value="Specializes" style="edgeLabel;html=1;align=center;verticalAlign=middle;resizable=0;points=[];" vertex="1" connectable="0" parent="4XJ80UnTKWf02rEMEN2x-7">
          <mxGeometry x="-0.1616" relative="1" as="geometry">
            <mxPoint as="offset" />
          </mxGeometry>
        </mxCell>
        <mxCell id="4XJ80UnTKWf02rEMEN2x-9" value="Students" style="rounded=0;whiteSpace=wrap;html=1;" vertex="1" parent="1">
          <mxGeometry x="14" y="125.5" width="120" height="60" as="geometry" />
        </mxCell>
        <mxCell id="4XJ80UnTKWf02rEMEN2x-10" value="&lt;div&gt;User&lt;/div&gt;" style="rounded=0;whiteSpace=wrap;html=1;" vertex="1" parent="1">
          <mxGeometry x="224" y="125.5" width="120" height="60" as="geometry" />
        </mxCell>
        <mxCell id="4XJ80UnTKWf02rEMEN2x-15" style="edgeStyle=orthogonalEdgeStyle;rounded=0;orthogonalLoop=1;jettySize=auto;html=1;exitX=0.5;exitY=1;exitDx=0;exitDy=0;entryX=0.25;entryY=1;entryDx=0;entryDy=0;" edge="1" parent="1" source="4XJ80UnTKWf02rEMEN2x-11" target="4XJ80UnTKWf02rEMEN2x-6">
          <mxGeometry relative="1" as="geometry">
            <Array as="points">
              <mxPoint x="514" y="340" />
              <mxPoint x="44" y="340" />
            </Array>
          </mxGeometry>
        </mxCell>
        <mxCell id="4XJ80UnTKWf02rEMEN2x-17" value="&lt;div&gt;Event Response&lt;/div&gt;" style="edgeLabel;html=1;align=center;verticalAlign=middle;resizable=0;points=[];" vertex="1" connectable="0" parent="4XJ80UnTKWf02rEMEN2x-15">
          <mxGeometry x="0.0734" y="-3" relative="1" as="geometry">
            <mxPoint as="offset" />
          </mxGeometry>
        </mxCell>
        <mxCell id="4XJ80UnTKWf02rEMEN2x-29" style="edgeStyle=orthogonalEdgeStyle;rounded=0;orthogonalLoop=1;jettySize=auto;html=1;entryX=0;entryY=0.25;entryDx=0;entryDy=0;exitX=0.961;exitY=0.304;exitDx=0;exitDy=0;exitPerimeter=0;" edge="1" parent="1" source="4XJ80UnTKWf02rEMEN2x-11" target="4XJ80UnTKWf02rEMEN2x-12">
          <mxGeometry relative="1" as="geometry">
            <mxPoint x="564" y="136" as="sourcePoint" />
          </mxGeometry>
        </mxCell>
        <mxCell id="4XJ80UnTKWf02rEMEN2x-30" value="&lt;div&gt;Event Reports&lt;/div&gt;" style="edgeLabel;html=1;align=center;verticalAlign=middle;resizable=0;points=[];" vertex="1" connectable="0" parent="4XJ80UnTKWf02rEMEN2x-29">
          <mxGeometry x="-0.1408" relative="1" as="geometry">
            <mxPoint x="2" as="offset" />
          </mxGeometry>
        </mxCell>
        <mxCell id="4XJ80UnTKWf02rEMEN2x-35" style="edgeStyle=orthogonalEdgeStyle;rounded=0;orthogonalLoop=1;jettySize=auto;html=1;exitX=0;exitY=0;exitDx=0;exitDy=0;entryX=0.5;entryY=0;entryDx=0;entryDy=0;" edge="1" parent="1" source="4XJ80UnTKWf02rEMEN2x-11" target="4XJ80UnTKWf02rEMEN2x-10">
          <mxGeometry relative="1" as="geometry">
            <Array as="points">
              <mxPoint x="472" y="106" />
              <mxPoint x="284" y="106" />
            </Array>
          </mxGeometry>
        </mxCell>
        <mxCell id="4XJ80UnTKWf02rEMEN2x-36" value="&lt;div&gt;Login / Register Response&lt;/div&gt;" style="edgeLabel;html=1;align=center;verticalAlign=middle;resizable=0;points=[];" vertex="1" connectable="0" parent="4XJ80UnTKWf02rEMEN2x-35">
          <mxGeometry x="0.1548" relative="1" as="geometry">
            <mxPoint x="16" as="offset" />
          </mxGeometry>
        </mxCell>
        <mxCell id="4XJ80UnTKWf02rEMEN2x-11" value="Alumni Connection Portal" style="ellipse;whiteSpace=wrap;html=1;" vertex="1" parent="1">
          <mxGeometry x="454" y="105.5" width="120" height="100" as="geometry" />
        </mxCell>
        <mxCell id="4XJ80UnTKWf02rEMEN2x-27" style="edgeStyle=orthogonalEdgeStyle;rounded=0;orthogonalLoop=1;jettySize=auto;html=1;exitX=-0.004;exitY=0.093;exitDx=0;exitDy=0;entryX=1;entryY=0;entryDx=0;entryDy=0;exitPerimeter=0;" edge="1" parent="1" source="4XJ80UnTKWf02rEMEN2x-12" target="4XJ80UnTKWf02rEMEN2x-11">
          <mxGeometry relative="1" as="geometry">
            <Array as="points">
              <mxPoint x="694" y="120" />
            </Array>
          </mxGeometry>
        </mxCell>
        <mxCell id="4XJ80UnTKWf02rEMEN2x-28" value="&lt;div&gt;Manage Events&lt;/div&gt;" style="edgeLabel;html=1;align=center;verticalAlign=middle;resizable=0;points=[];" vertex="1" connectable="0" parent="4XJ80UnTKWf02rEMEN2x-27">
          <mxGeometry x="0.0478" relative="1" as="geometry">
            <mxPoint as="offset" />
          </mxGeometry>
        </mxCell>
        <mxCell id="4XJ80UnTKWf02rEMEN2x-12" value="Admin" style="rounded=0;whiteSpace=wrap;html=1;" vertex="1" parent="1">
          <mxGeometry x="694" y="115.5" width="120" height="80" as="geometry" />
        </mxCell>
        <mxCell id="4XJ80UnTKWf02rEMEN2x-14" style="edgeStyle=orthogonalEdgeStyle;rounded=0;orthogonalLoop=1;jettySize=auto;html=1;exitX=0.75;exitY=1;exitDx=0;exitDy=0;" edge="1" parent="1" source="4XJ80UnTKWf02rEMEN2x-6">
          <mxGeometry relative="1" as="geometry">
            <mxPoint x="490" y="200" as="targetPoint" />
          </mxGeometry>
        </mxCell>
        <mxCell id="4XJ80UnTKWf02rEMEN2x-16" value="&lt;div&gt;Create Event&lt;/div&gt;" style="edgeLabel;html=1;align=center;verticalAlign=middle;resizable=0;points=[];" vertex="1" connectable="0" parent="4XJ80UnTKWf02rEMEN2x-14">
          <mxGeometry x="-0.2613" y="-3" relative="1" as="geometry">
            <mxPoint as="offset" />
          </mxGeometry>
        </mxCell>
        <mxCell id="4XJ80UnTKWf02rEMEN2x-23" style="edgeStyle=orthogonalEdgeStyle;rounded=0;orthogonalLoop=1;jettySize=auto;html=1;exitX=0.015;exitY=0.643;exitDx=0;exitDy=0;entryX=1;entryY=0.75;entryDx=0;entryDy=0;exitPerimeter=0;" edge="1" parent="1" source="4XJ80UnTKWf02rEMEN2x-11" target="4XJ80UnTKWf02rEMEN2x-10">
          <mxGeometry relative="1" as="geometry">
            <mxPoint x="444" y="170" as="sourcePoint" />
          </mxGeometry>
        </mxCell>
        <mxCell id="4XJ80UnTKWf02rEMEN2x-26" value="&lt;div&gt;Notifications&lt;/div&gt;" style="edgeLabel;html=1;align=center;verticalAlign=middle;resizable=0;points=[];" vertex="1" connectable="0" parent="4XJ80UnTKWf02rEMEN2x-23">
          <mxGeometry x="-0.1031" y="-2" relative="1" as="geometry">
            <mxPoint as="offset" />
          </mxGeometry>
        </mxCell>
        <mxCell id="4XJ80UnTKWf02rEMEN2x-24" style="edgeStyle=orthogonalEdgeStyle;rounded=0;orthogonalLoop=1;jettySize=auto;html=1;exitX=1;exitY=0.25;exitDx=0;exitDy=0;entryX=0.02;entryY=0.365;entryDx=0;entryDy=0;entryPerimeter=0;" edge="1" parent="1" source="4XJ80UnTKWf02rEMEN2x-10" target="4XJ80UnTKWf02rEMEN2x-11">
          <mxGeometry relative="1" as="geometry">
            <mxPoint x="460" y="141" as="targetPoint" />
          </mxGeometry>
        </mxCell>
        <mxCell id="4XJ80UnTKWf02rEMEN2x-25" value="&lt;div&gt;Login / Register&lt;/div&gt;" style="edgeLabel;html=1;align=center;verticalAlign=middle;resizable=0;points=[];" vertex="1" connectable="0" parent="4XJ80UnTKWf02rEMEN2x-24">
          <mxGeometry x="-0.2442" y="-1" relative="1" as="geometry">
            <mxPoint x="4" as="offset" />
          </mxGeometry>
        </mxCell>
        <mxCell id="4XJ80UnTKWf02rEMEN2x-31" style="edgeStyle=orthogonalEdgeStyle;rounded=0;orthogonalLoop=1;jettySize=auto;html=1;exitX=0;exitY=0.75;exitDx=0;exitDy=0;entryX=0.961;entryY=0.7;entryDx=0;entryDy=0;entryPerimeter=0;" edge="1" parent="1" source="4XJ80UnTKWf02rEMEN2x-12" target="4XJ80UnTKWf02rEMEN2x-11">
          <mxGeometry relative="1" as="geometry" />
        </mxCell>
        <mxCell id="4XJ80UnTKWf02rEMEN2x-32" value="&lt;div&gt;User Approval&lt;/div&gt;" style="edgeLabel;html=1;align=center;verticalAlign=middle;resizable=0;points=[];" vertex="1" connectable="0" parent="4XJ80UnTKWf02rEMEN2x-31">
          <mxGeometry x="-0.0299" y="2" relative="1" as="geometry">
            <mxPoint y="-7" as="offset" />
          </mxGeometry>
        </mxCell>
        <mxCell id="4XJ80UnTKWf02rEMEN2x-33" style="edgeStyle=orthogonalEdgeStyle;rounded=0;orthogonalLoop=1;jettySize=auto;html=1;exitX=1;exitY=1;exitDx=0;exitDy=0;entryX=0.013;entryY=0.934;entryDx=0;entryDy=0;entryPerimeter=0;" edge="1" parent="1" source="4XJ80UnTKWf02rEMEN2x-11" target="4XJ80UnTKWf02rEMEN2x-12">
          <mxGeometry relative="1" as="geometry" />
        </mxCell>
        <mxCell id="4XJ80UnTKWf02rEMEN2x-34" value="&lt;div&gt;Approval Status&lt;/div&gt;" style="edgeLabel;html=1;align=center;verticalAlign=middle;resizable=0;points=[];" vertex="1" connectable="0" parent="4XJ80UnTKWf02rEMEN2x-33">
          <mxGeometry x="0.0125" y="1" relative="1" as="geometry">
            <mxPoint as="offset" />
          </mxGeometry>
        </mxCell>
      </root>
    </mxGraphModel>
  </diagram>
</mxfile>
